<svg width="119" height="50" viewBox="0 0 119 50" fill="none" xmlns="http://www.w3.org/2000/svg">
<path d="M14.6464 24.6464C14.4512 24.8417 14.4512 25.1583 14.6464 25.3536L17.8284 28.5355C18.0237 28.7308 18.3403 28.7308 18.5355 28.5355C18.7308 28.3403 18.7308 28.0237 18.5355 27.8284L15.7071 25L18.5355 22.1716C18.7308 21.9763 18.7308 21.6597 18.5355 21.4645C18.3403 21.2692 18.0237 21.2692 17.8284 21.4645L14.6464 24.6464ZM45 24.5L15 24.5L15 25.5L45 25.5L45 24.5Z" fill="white"/>
<rect x="59.5" y="49.5" width="59" height="49" transform="rotate(180 59.5 49.5)" stroke="white"/>
<path d="M104.354 25.3536C104.549 25.1583 104.549 24.8417 104.354 24.6464L101.172 21.4645C100.976 21.2692 100.66 21.2692 100.464 21.4645C100.269 21.6597 100.269 21.9763 100.464 22.1716L103.293 25L100.464 27.8284C100.269 28.0237 100.269 28.3403 100.464 28.5355C100.66 28.7308 100.976 28.7308 101.172 28.5355L104.354 25.3536ZM74 25.5L104 25.5V24.5L74 24.5V25.5Z" fill="white"/>
<rect x="59.5" y="0.5" width="59" height="49" stroke="white"/>
</svg>
