<svg width="324" height="80" viewBox="0 0 324 80" fill="none" xmlns="http://www.w3.org/2000/svg">
<rect width="324" height="80" fill="#4FBFA5"/>
<path d="M94.2752 45.152H95.8502V49.814H93.8972V47H83.6072V32.3H85.5602V45.152H92.3222V32.3H94.2752V45.152ZM98.7881 42.59C98.9701 43.528 99.3971 44.256 100.069 44.774C100.755 45.292 101.595 45.551 102.589 45.551C103.975 45.551 104.983 45.04 105.613 44.018L107.167 44.9C106.145 46.482 104.605 47.273 102.547 47.273C100.881 47.273 99.5231 46.755 98.4731 45.719C97.4371 44.669 96.9191 43.346 96.9191 41.75C96.9191 40.168 97.4301 38.852 98.4521 37.802C99.4741 36.752 100.797 36.227 102.421 36.227C103.961 36.227 105.214 36.773 106.18 37.865C107.16 38.943 107.65 40.245 107.65 41.771C107.65 42.037 107.629 42.31 107.587 42.59H98.7881ZM102.421 37.949C101.441 37.949 100.629 38.229 99.9851 38.789C99.3411 39.335 98.9421 40.07 98.7881 40.994H105.802C105.648 40 105.256 39.244 104.626 38.726C103.996 38.208 103.261 37.949 102.421 37.949ZM117.016 36.5H118.843V47H117.016V42.611H111.577V47H109.75V36.5H111.577V40.868H117.016V36.5ZM129.436 36.5V38.264H125.866V47H124.039V38.264H120.448V36.5H129.436ZM136.833 36.227C138.303 36.227 139.556 36.766 140.592 37.844C141.628 38.908 142.146 40.21 142.146 41.75C142.146 43.29 141.628 44.599 140.592 45.677C139.556 46.741 138.303 47.273 136.833 47.273C135.097 47.273 133.774 46.58 132.864 45.194V51.2H131.037V36.5H132.864V38.306C133.774 36.92 135.097 36.227 136.833 36.227ZM136.602 45.509C137.652 45.509 138.534 45.152 139.248 44.438C139.962 43.71 140.319 42.814 140.319 41.75C140.319 40.686 139.962 39.797 139.248 39.083C138.534 38.355 137.652 37.991 136.602 37.991C135.538 37.991 134.649 38.355 133.935 39.083C133.221 39.797 132.864 40.686 132.864 41.75C132.864 42.814 133.221 43.71 133.935 44.438C134.649 45.152 135.538 45.509 136.602 45.509ZM158.438 45.677C157.36 46.741 156.051 47.273 154.511 47.273C152.971 47.273 151.662 46.741 150.584 45.677C149.52 44.613 148.988 43.304 148.988 41.75C148.988 40.196 149.52 38.887 150.584 37.823C151.662 36.759 152.971 36.227 154.511 36.227C156.051 36.227 157.36 36.759 158.438 37.823C159.516 38.887 160.055 40.196 160.055 41.75C160.055 43.304 159.516 44.613 158.438 45.677ZM154.511 45.488C155.561 45.488 156.443 45.131 157.157 44.417C157.871 43.703 158.228 42.814 158.228 41.75C158.228 40.686 157.871 39.797 157.157 39.083C156.443 38.369 155.561 38.012 154.511 38.012C153.475 38.012 152.6 38.369 151.886 39.083C151.172 39.797 150.815 40.686 150.815 41.75C150.815 42.814 151.172 43.703 151.886 44.417C152.6 45.131 153.475 45.488 154.511 45.488ZM166.976 47.273C165.422 47.273 164.141 46.762 163.133 45.74C162.125 44.718 161.621 43.402 161.621 41.792C161.621 40 161.88 38.621 162.398 37.655C162.93 36.689 164.008 35.814 165.632 35.03C165.926 34.89 166.325 34.708 166.829 34.484C167.347 34.26 167.725 34.092 167.963 33.98C168.201 33.854 168.467 33.693 168.761 33.497C169.055 33.287 169.272 33.063 169.412 32.825C169.566 32.573 169.678 32.286 169.748 31.964L171.218 32.804C171.176 33.028 171.12 33.238 171.05 33.434C170.98 33.616 170.875 33.798 170.735 33.98C170.609 34.148 170.497 34.295 170.399 34.421C170.301 34.547 170.133 34.687 169.895 34.841C169.671 34.981 169.503 35.086 169.391 35.156C169.293 35.226 169.09 35.331 168.782 35.471C168.488 35.611 168.285 35.709 168.173 35.765C168.075 35.807 167.844 35.905 167.48 36.059C167.116 36.199 166.892 36.29 166.808 36.332C165.856 36.738 165.156 37.151 164.708 37.571C164.274 37.991 163.959 38.523 163.763 39.167C164.211 38.607 164.771 38.194 165.443 37.928C166.115 37.662 166.787 37.529 167.459 37.529C168.775 37.529 169.888 37.977 170.798 38.873C171.722 39.769 172.184 40.924 172.184 42.338C172.184 43.766 171.694 44.949 170.714 45.887C169.734 46.811 168.488 47.273 166.976 47.273ZM164.519 44.585C165.177 45.201 165.996 45.509 166.976 45.509C167.956 45.509 168.761 45.208 169.391 44.606C170.035 44.004 170.357 43.248 170.357 42.338C170.357 41.4 170.049 40.637 169.433 40.049C168.831 39.447 168.033 39.146 167.039 39.146C166.143 39.146 165.331 39.433 164.603 40.007C163.889 40.567 163.532 41.309 163.532 42.233C163.532 43.185 163.861 43.969 164.519 44.585ZM181.043 36.5H182.996L178.712 47.651C178.264 48.841 177.634 49.744 176.822 50.36C176.01 50.99 175.086 51.27 174.05 51.2V49.499C175.338 49.597 176.283 48.897 176.885 47.399L177.053 47.021L172.496 36.5H174.428L178.019 44.732L181.043 36.5ZM191.137 36.5H192.964V47H191.137V43.22C190.297 43.584 189.352 43.766 188.302 43.766C186.958 43.766 185.915 43.451 185.173 42.821C184.445 42.177 184.081 41.232 184.081 39.986V36.5H185.908V39.881C185.908 40.665 186.118 41.225 186.538 41.561C186.972 41.897 187.602 42.065 188.428 42.065C189.422 42.065 190.325 41.883 191.137 41.519V36.5ZM197.021 42.59C197.203 43.528 197.63 44.256 198.302 44.774C198.988 45.292 199.828 45.551 200.822 45.551C202.208 45.551 203.216 45.04 203.846 44.018L205.4 44.9C204.378 46.482 202.838 47.273 200.78 47.273C199.114 47.273 197.756 46.755 196.706 45.719C195.67 44.669 195.152 43.346 195.152 41.75C195.152 40.168 195.663 38.852 196.685 37.802C197.707 36.752 199.03 36.227 200.654 36.227C202.194 36.227 203.447 36.773 204.413 37.865C205.393 38.943 205.883 40.245 205.883 41.771C205.883 42.037 205.862 42.31 205.82 42.59H197.021ZM200.654 37.949C199.674 37.949 198.862 38.229 198.218 38.789C197.574 39.335 197.175 40.07 197.021 40.994H204.035C203.881 40 203.489 39.244 202.859 38.726C202.229 38.208 201.494 37.949 200.654 37.949ZM215.249 36.5H217.076V47H215.249V42.611H209.81V47H207.983V36.5H209.81V40.868H215.249V36.5ZM227.48 36.5H228.95V47H227.144V39.629L221.327 47H219.857V36.5H221.663V43.871L227.48 36.5ZM239.585 36.5V47H237.779V43.22H236.246L233.306 47H231.08L234.146 43.115C233.362 42.919 232.725 42.527 232.235 41.939C231.745 41.351 231.5 40.665 231.5 39.881C231.5 38.915 231.843 38.11 232.529 37.466C233.215 36.822 234.076 36.5 235.112 36.5H239.585ZM235.175 41.582H237.779V38.201H235.175C234.657 38.201 234.216 38.355 233.852 38.663C233.488 38.971 233.306 39.384 233.306 39.902C233.306 40.406 233.488 40.812 233.852 41.12C234.216 41.428 234.657 41.582 235.175 41.582Z" fill="white"/>
</svg>
