<svg width="163" height="50" viewBox="0 0 163 50" fill="none" xmlns="http://www.w3.org/2000/svg">
<rect width="163" height="50" fill="#00868A"/>
<path d="M35.494 19.4V32H33.82V20.984H28.024V32H26.35V19.4H35.494ZM49.5737 30.326C48.3137 31.598 46.7717 32.234 44.9477 32.234C43.1237 32.234 41.5817 31.598 40.3217 30.326C39.0617 29.054 38.4317 27.512 38.4317 25.7C38.4317 23.876 39.0617 22.334 40.3217 21.074C41.5817 19.802 43.1237 19.166 44.9477 19.166C46.7717 19.166 48.3137 19.802 49.5737 21.074C50.8457 22.334 51.4817 23.876 51.4817 25.7C51.4817 27.512 50.8457 29.054 49.5737 30.326ZM41.4737 29.192C42.4097 30.128 43.5677 30.596 44.9477 30.596C46.3277 30.596 47.4797 30.128 48.4037 29.192C49.3397 28.244 49.8077 27.08 49.8077 25.7C49.8077 24.308 49.3397 23.144 48.4037 22.208C47.4797 21.26 46.3277 20.786 44.9477 20.786C43.5677 20.786 42.4097 21.26 41.4737 22.208C40.5497 23.144 40.0877 24.308 40.0877 25.7C40.0877 27.08 40.5497 28.244 41.4737 29.192ZM63.0656 30.416H64.4156V34.412H62.7416V32H54.4256V34.412H52.7516V30.416H53.8496C54.6296 29.444 55.0196 27.968 55.0196 25.988V19.4H63.0656V30.416ZM55.7396 30.416H61.3916V20.966H56.6936V26.024C56.6936 27.932 56.3756 29.396 55.7396 30.416ZM71.8193 19.4C72.9833 19.4 73.9493 19.79 74.7173 20.57C75.4973 21.338 75.8873 22.298 75.8873 23.45C75.8873 24.59 75.4973 25.55 74.7173 26.33C73.9493 27.11 72.9833 27.5 71.8193 27.5H68.9213V32H67.2473V19.4H71.8193ZM71.8193 25.934C72.5153 25.934 73.0913 25.7 73.5473 25.232C74.0033 24.752 74.2313 24.158 74.2313 23.45C74.2313 22.73 74.0033 22.136 73.5473 21.668C73.0913 21.2 72.5153 20.966 71.8193 20.966H68.9213V25.934H71.8193ZM89.1526 30.326C87.8926 31.598 86.3506 32.234 84.5266 32.234C82.7026 32.234 81.1606 31.598 79.9006 30.326C78.6406 29.054 78.0106 27.512 78.0106 25.7C78.0106 23.876 78.6406 22.334 79.9006 21.074C81.1606 19.802 82.7026 19.166 84.5266 19.166C86.3506 19.166 87.8926 19.802 89.1526 21.074C90.4246 22.334 91.0606 23.876 91.0606 25.7C91.0606 27.512 90.4246 29.054 89.1526 30.326ZM81.0526 29.192C81.9886 30.128 83.1466 30.596 84.5266 30.596C85.9066 30.596 87.0586 30.128 87.9826 29.192C88.9186 28.244 89.3866 27.08 89.3866 25.7C89.3866 24.308 88.9186 23.144 87.9826 22.208C87.0586 21.26 85.9066 20.786 84.5266 20.786C83.1466 20.786 81.9886 21.26 81.0526 22.208C80.1286 23.144 79.6666 24.308 79.6666 25.7C79.6666 27.08 80.1286 28.244 81.0526 29.192ZM98.707 24.35C99.799 24.35 100.723 24.722 101.479 25.466C102.235 26.198 102.613 27.098 102.613 28.166C102.613 29.258 102.235 30.17 101.479 30.902C100.735 31.634 99.811 32 98.707 32H93.973V19.4H101.533V20.984H95.647V24.35H98.707ZM98.707 30.434C99.331 30.434 99.859 30.218 100.291 29.786C100.735 29.354 100.957 28.814 100.957 28.166C100.957 27.53 100.735 26.996 100.291 26.564C99.859 26.132 99.331 25.916 98.707 25.916H95.647V30.434H98.707ZM113.196 19.4H114.852V32H113.196V26.33H107.076V32H105.402V19.4H107.076V24.746H113.196V19.4ZM120.123 30.416H125.973V32H118.449V19.4H125.883V20.984H120.123V24.854H125.433V26.42H120.123V30.416ZM130.568 30.416H136.418V32H128.894V19.4H136.328V20.984H130.568V24.854H135.878V26.42H130.568V30.416Z" fill="white"/>
</svg>
