<svg width="324" height="80" viewBox="0 0 324 80" fill="none" xmlns="http://www.w3.org/2000/svg">
<rect width="324" height="80" fill="#00868A"/>
<path d="M102.685 47L97.4351 32.3H99.5351L103.798 44.564L108.04 32.3H110.161L104.89 47H102.685ZM111.885 32.3H113.838V47H111.885V32.3ZM122.326 32.3C123.684 32.3 124.811 32.755 125.707 33.665C126.617 34.561 127.072 35.681 127.072 37.025C127.072 38.355 126.617 39.475 125.707 40.385C124.811 41.295 123.684 41.75 122.326 41.75H118.945V47H116.992V32.3H122.326ZM122.326 39.923C123.138 39.923 123.81 39.65 124.342 39.104C124.874 38.544 125.14 37.851 125.14 37.025C125.14 36.185 124.874 35.492 124.342 34.946C123.81 34.4 123.138 34.127 122.326 34.127H118.945V39.923H122.326ZM143.322 47H141.054L136.266 42.023V47H134.439V36.5H136.266V41.141L140.802 36.5H143.154L138.135 41.582L143.322 47ZM153.778 36.5V47H151.951V38.264H147.814V42.548C147.814 44.27 147.464 45.474 146.764 46.16C146.078 46.832 145.105 47.112 143.845 47V45.278C144.559 45.376 145.091 45.222 145.441 44.816C145.805 44.396 145.987 43.626 145.987 42.506V36.5H153.778ZM164.17 36.5H165.64V47H163.834V39.629L158.017 47H156.547V36.5H158.353V43.871L164.17 36.5ZM169.702 42.59C169.884 43.528 170.311 44.256 170.983 44.774C171.669 45.292 172.509 45.551 173.503 45.551C174.889 45.551 175.897 45.04 176.527 44.018L178.081 44.9C177.059 46.482 175.519 47.273 173.461 47.273C171.795 47.273 170.437 46.755 169.387 45.719C168.351 44.669 167.833 43.346 167.833 41.75C167.833 40.168 168.344 38.852 169.366 37.802C170.388 36.752 171.711 36.227 173.335 36.227C174.875 36.227 176.128 36.773 177.094 37.865C178.074 38.943 178.564 40.245 178.564 41.771C178.564 42.037 178.543 42.31 178.501 42.59H169.702ZM173.335 37.949C172.355 37.949 171.543 38.229 170.899 38.789C170.255 39.335 169.856 40.07 169.702 40.994H176.716C176.562 40 176.17 39.244 175.54 38.726C174.91 38.208 174.175 37.949 173.335 37.949ZM187.93 36.5H189.757V47H187.93V42.611H182.491V47H180.664V36.5H182.491V40.868H187.93V36.5ZM200.35 36.5V38.264H196.78V47H194.953V38.264H191.362V36.5H200.35ZM210.235 36.5H212.062V47H210.235V45.194C209.325 46.58 208.002 47.273 206.266 47.273C204.796 47.273 203.543 46.741 202.507 45.677C201.471 44.599 200.953 43.29 200.953 41.75C200.953 40.21 201.471 38.908 202.507 37.844C203.543 36.766 204.796 36.227 206.266 36.227C208.002 36.227 209.325 36.92 210.235 38.306V36.5ZM206.497 45.509C207.561 45.509 208.45 45.152 209.164 44.438C209.878 43.71 210.235 42.814 210.235 41.75C210.235 40.686 209.878 39.797 209.164 39.083C208.45 38.355 207.561 37.991 206.497 37.991C205.447 37.991 204.565 38.355 203.851 39.083C203.137 39.797 202.78 40.686 202.78 41.75C202.78 42.814 203.137 43.71 203.851 44.438C204.565 45.152 205.447 45.509 206.497 45.509ZM225.33 36.5V47H223.545V39.377L220.206 44.753H219.975L216.636 39.377V47H214.83V36.5H216.783L220.08 41.813L223.377 36.5H225.33Z" fill="white"/>
</svg>
