<svg width="648" height="80" viewBox="0 0 648 80" fill="none" xmlns="http://www.w3.org/2000/svg">
<rect width="648" height="80" fill="#00868A"/>
<path d="M211.515 47H209.121L202.779 39.944V47H200.826V32.3H202.779V38.936L208.911 32.3H211.305L204.816 39.44L211.515 47ZM220.983 45.677C219.905 46.741 218.596 47.273 217.056 47.273C215.516 47.273 214.207 46.741 213.129 45.677C212.065 44.613 211.533 43.304 211.533 41.75C211.533 40.196 212.065 38.887 213.129 37.823C214.207 36.759 215.516 36.227 217.056 36.227C218.596 36.227 219.905 36.759 220.983 37.823C222.061 38.887 222.6 40.196 222.6 41.75C222.6 43.304 222.061 44.613 220.983 45.677ZM217.056 45.488C218.106 45.488 218.988 45.131 219.702 44.417C220.416 43.703 220.773 42.814 220.773 41.75C220.773 40.686 220.416 39.797 219.702 39.083C218.988 38.369 218.106 38.012 217.056 38.012C216.02 38.012 215.145 38.369 214.431 39.083C213.717 39.797 213.36 40.686 213.36 41.75C213.36 42.814 213.717 43.703 214.431 44.417C215.145 45.131 216.02 45.488 217.056 45.488ZM235.254 36.5V47H233.469V39.377L230.13 44.753H229.899L226.56 39.377V47H224.754V36.5H226.707L230.004 41.813L233.301 36.5H235.254ZM247.136 36.5V47H245.309V38.243H239.87V47H238.043V36.5H247.136ZM258.674 36.5V47H256.847V38.264H252.71V42.548C252.71 44.27 252.36 45.474 251.66 46.16C250.974 46.832 250.001 47.112 248.741 47V45.278C249.455 45.376 249.987 45.222 250.337 44.816C250.701 44.396 250.883 43.626 250.883 42.506V36.5H258.674ZM262.724 42.59C262.906 43.528 263.333 44.256 264.005 44.774C264.691 45.292 265.531 45.551 266.525 45.551C267.911 45.551 268.919 45.04 269.549 44.018L271.103 44.9C270.081 46.482 268.541 47.273 266.483 47.273C264.817 47.273 263.459 46.755 262.409 45.719C261.373 44.669 260.855 43.346 260.855 41.75C260.855 40.168 261.366 38.852 262.388 37.802C263.41 36.752 264.733 36.227 266.357 36.227C267.897 36.227 269.15 36.773 270.116 37.865C271.096 38.943 271.586 40.245 271.586 41.771C271.586 42.037 271.565 42.31 271.523 42.59H262.724ZM266.357 37.949C265.377 37.949 264.565 38.229 263.921 38.789C263.277 39.335 262.878 40.07 262.724 40.994H269.738C269.584 40 269.192 39.244 268.562 38.726C267.932 38.208 267.197 37.949 266.357 37.949ZM282.569 47H280.301L275.513 42.023V47H273.686V36.5H275.513V41.141L280.049 36.5H282.401L277.382 41.582L282.569 47ZM288.239 47.273C286.657 47.273 285.341 46.748 284.291 45.698C283.241 44.634 282.716 43.318 282.716 41.75C282.716 40.182 283.241 38.873 284.291 37.823C285.341 36.759 286.657 36.227 288.239 36.227C289.275 36.227 290.206 36.479 291.032 36.983C291.858 37.473 292.474 38.138 292.88 38.978L291.347 39.86C291.081 39.3 290.668 38.852 290.108 38.516C289.562 38.18 288.939 38.012 288.239 38.012C287.189 38.012 286.307 38.369 285.593 39.083C284.893 39.797 284.543 40.686 284.543 41.75C284.543 42.8 284.893 43.682 285.593 44.396C286.307 45.11 287.189 45.467 288.239 45.467C288.939 45.467 289.569 45.306 290.129 44.984C290.689 44.648 291.116 44.2 291.41 43.64L292.964 44.543C292.516 45.369 291.872 46.034 291.032 46.538C290.192 47.028 289.261 47.273 288.239 47.273ZM302.054 36.5H303.881V47H302.054V42.611H296.615V47H294.788V36.5H296.615V40.868H302.054V36.5ZM311.093 40.28C312.143 40.28 313.011 40.595 313.697 41.225C314.397 41.841 314.747 42.646 314.747 43.64C314.747 44.634 314.397 45.446 313.697 46.076C313.011 46.692 312.143 47 311.093 47H306.662V36.5H308.489V40.28H311.093ZM316.112 36.5H317.939V47H316.112V36.5ZM311.093 45.299C311.611 45.299 312.045 45.152 312.395 44.858C312.759 44.55 312.941 44.144 312.941 43.64C312.941 43.136 312.759 42.73 312.395 42.422C312.045 42.114 311.611 41.96 311.093 41.96H308.489V45.299H311.093ZM322.012 42.59C322.194 43.528 322.621 44.256 323.293 44.774C323.979 45.292 324.819 45.551 325.813 45.551C327.199 45.551 328.207 45.04 328.837 44.018L330.391 44.9C329.369 46.482 327.829 47.273 325.771 47.273C324.105 47.273 322.747 46.755 321.697 45.719C320.661 44.669 320.143 43.346 320.143 41.75C320.143 40.168 320.654 38.852 321.676 37.802C322.698 36.752 324.021 36.227 325.645 36.227C327.185 36.227 328.438 36.773 329.404 37.865C330.384 38.943 330.874 40.245 330.874 41.771C330.874 42.037 330.853 42.31 330.811 42.59H322.012ZM325.645 37.949C324.665 37.949 323.853 38.229 323.209 38.789C322.565 39.335 322.166 40.07 322.012 40.994H329.026C328.872 40 328.48 39.244 327.85 38.726C327.22 38.208 326.485 37.949 325.645 37.949ZM347.317 36.5V47H345.49V38.243H340.051V47H338.224V36.5H347.317ZM355.894 36.227C357.364 36.227 358.617 36.766 359.653 37.844C360.689 38.908 361.207 40.21 361.207 41.75C361.207 43.29 360.689 44.599 359.653 45.677C358.617 46.741 357.364 47.273 355.894 47.273C354.158 47.273 352.835 46.58 351.925 45.194V51.2H350.098V36.5H351.925V38.306C352.835 36.92 354.158 36.227 355.894 36.227ZM355.663 45.509C356.713 45.509 357.595 45.152 358.309 44.438C359.023 43.71 359.38 42.814 359.38 41.75C359.38 40.686 359.023 39.797 358.309 39.083C357.595 38.355 356.713 37.991 355.663 37.991C354.599 37.991 353.71 38.355 352.996 39.083C352.282 39.797 351.925 40.686 351.925 41.75C351.925 42.814 352.282 43.71 352.996 44.438C353.71 45.152 354.599 45.509 355.663 45.509ZM372.249 45.677C371.171 46.741 369.862 47.273 368.322 47.273C366.782 47.273 365.473 46.741 364.395 45.677C363.331 44.613 362.799 43.304 362.799 41.75C362.799 40.196 363.331 38.887 364.395 37.823C365.473 36.759 366.782 36.227 368.322 36.227C369.862 36.227 371.171 36.759 372.249 37.823C373.327 38.887 373.866 40.196 373.866 41.75C373.866 43.304 373.327 44.613 372.249 45.677ZM368.322 45.488C369.372 45.488 370.254 45.131 370.968 44.417C371.682 43.703 372.039 42.814 372.039 41.75C372.039 40.686 371.682 39.797 370.968 39.083C370.254 38.369 369.372 38.012 368.322 38.012C367.286 38.012 366.411 38.369 365.697 39.083C364.983 39.797 364.626 40.686 364.626 41.75C364.626 42.814 364.983 43.703 365.697 44.417C366.411 45.131 367.286 45.488 368.322 45.488ZM384.84 45.257H386.562V49.814H384.756V47H376.02V36.5H377.847V45.257H383.013V36.5H384.84V45.257ZM389.38 42.59C389.562 43.528 389.989 44.256 390.661 44.774C391.347 45.292 392.187 45.551 393.181 45.551C394.567 45.551 395.575 45.04 396.205 44.018L397.759 44.9C396.737 46.482 395.197 47.273 393.139 47.273C391.473 47.273 390.115 46.755 389.065 45.719C388.029 44.669 387.511 43.346 387.511 41.75C387.511 40.168 388.022 38.852 389.044 37.802C390.066 36.752 391.389 36.227 393.013 36.227C394.553 36.227 395.806 36.773 396.772 37.865C397.752 38.943 398.242 40.245 398.242 41.771C398.242 42.037 398.221 42.31 398.179 42.59H389.38ZM393.013 37.949C392.033 37.949 391.221 38.229 390.577 38.789C389.933 39.335 389.534 40.07 389.38 40.994H396.394C396.24 40 395.848 39.244 395.218 38.726C394.588 38.208 393.853 37.949 393.013 37.949ZM408.962 45.257H410.411V49.814H408.605V47H400.73V49.814H398.924V45.257H400.205C400.877 44.333 401.213 43.038 401.213 41.372V36.5H408.962V45.257ZM402.284 45.257H407.156V38.201H403.019V41.372C403.019 42.94 402.774 44.235 402.284 45.257ZM419.299 36.5H421.252L416.968 47.651C416.52 48.841 415.89 49.744 415.078 50.36C414.266 50.99 413.342 51.27 412.306 51.2V49.499C413.594 49.597 414.539 48.897 415.141 47.399L415.309 47.021L410.752 36.5H412.684L416.275 44.732L419.299 36.5ZM428.574 36.227C430.044 36.227 431.297 36.766 432.333 37.844C433.369 38.908 433.887 40.21 433.887 41.75C433.887 43.29 433.369 44.599 432.333 45.677C431.297 46.741 430.044 47.273 428.574 47.273C426.838 47.273 425.515 46.58 424.605 45.194V51.2H422.778V36.5H424.605V38.306C425.515 36.92 426.838 36.227 428.574 36.227ZM428.343 45.509C429.393 45.509 430.275 45.152 430.989 44.438C431.703 43.71 432.06 42.814 432.06 41.75C432.06 40.686 431.703 39.797 430.989 39.083C430.275 38.355 429.393 37.991 428.343 37.991C427.279 37.991 426.39 38.355 425.676 39.083C424.962 39.797 424.605 40.686 424.605 41.75C424.605 42.814 424.962 43.71 425.676 44.438C426.39 45.152 427.279 45.509 428.343 45.509ZM440.498 40.28C441.548 40.28 442.416 40.595 443.102 41.225C443.802 41.841 444.152 42.646 444.152 43.64C444.152 44.634 443.802 45.446 443.102 46.076C442.416 46.692 441.548 47 440.498 47H436.067V36.5H437.894V40.28H440.498ZM445.517 36.5H447.344V47H445.517V36.5ZM440.498 45.299C441.016 45.299 441.45 45.152 441.8 44.858C442.164 44.55 442.346 44.144 442.346 43.64C442.346 43.136 442.164 42.73 441.8 42.422C441.45 42.114 441.016 41.96 440.498 41.96H437.894V45.299H440.498Z" fill="white"/>
</svg>
