<svg width="270" height="40" viewBox="0 0 270 40" fill="none" xmlns="http://www.w3.org/2000/svg">
<rect width="270" height="40" fill="#00868A"/>
<path d="M28.0739 16.3102C27.4337 16.3102 26.8223 16.4371 26.2396 16.6908C25.6569 16.9445 25.1563 17.2801 24.7377 17.6975C24.3191 18.1149 23.9826 18.6141 23.7282 19.1952C23.4738 19.7763 23.3466 20.3861 23.3466 21.0245C23.3466 21.6629 23.4738 22.2767 23.7282 22.866C23.9826 23.4553 24.3191 23.9586 24.7377 24.376C25.1563 24.7935 25.6569 25.1249 26.2396 25.3705C26.8223 25.616 27.4337 25.7388 28.0739 25.7388C28.9438 25.7388 29.7399 25.5301 30.4621 25.1127C31.1843 24.6952 31.7547 24.1264 32.1733 23.4062C32.5919 22.6859 32.8011 21.892 32.8011 21.0245C32.8011 19.7313 32.3415 18.6223 31.4224 17.6975C30.5032 16.7726 29.387 16.3102 28.0739 16.3102ZM28.0739 24.1673C27.5158 24.1673 26.9905 24.0241 26.4981 23.7377C26.0057 23.4512 25.6158 23.0665 25.3286 22.5836C25.0414 22.1007 24.8977 21.5728 24.8977 20.9999C24.8977 20.5743 24.9798 20.1692 25.1439 19.7845C25.3081 19.3999 25.5338 19.0643 25.821 18.7778C26.1083 18.4914 26.4448 18.2663 26.8305 18.1026C27.2162 17.9389 27.6225 17.8571 28.0492 17.8571C28.9192 17.8571 29.6619 18.164 30.2775 18.7778C30.893 19.3917 31.2008 20.1324 31.2008 20.9999C31.2008 21.8675 30.8971 22.6123 30.2898 23.2343C29.6825 23.8563 28.9438 24.1673 28.0739 24.1673ZM40.6061 20.8281C40.6061 20.8117 40.602 20.7912 40.5938 20.7667C40.5855 20.7421 40.5814 20.7217 40.5814 20.7053C40.5814 20.6889 40.5773 20.6766 40.5691 20.6685L40.5568 20.6562V20.6316L40.5322 20.5825C39.416 18.0126 37.7254 15.9951 35.4602 14.5301C33.1951 13.065 30.7247 12.3325 28.0492 12.3325C26.2929 12.3325 24.6023 12.6517 22.9773 13.2901C21.3523 13.9285 19.8791 14.8738 18.5578 16.126C17.2364 17.3783 16.1982 18.8638 15.4432 20.5825V20.6439L15.4186 20.6807V20.7544L15.3939 20.8035C15.3775 20.9017 15.3693 20.9754 15.3693 21.0245C15.3693 21.0572 15.3734 21.09 15.3816 21.1227C15.3898 21.1554 15.3939 21.1882 15.3939 21.2209C15.3939 21.2373 15.4021 21.2618 15.4186 21.2946V21.3437L15.4309 21.3805L15.4432 21.3928V21.4664C16.5758 24.0364 18.2787 26.0457 20.5521 27.4944C22.8254 28.943 25.3081 29.6673 28 29.6673C29.7563 29.6673 31.4429 29.3522 33.0597 28.722C34.6765 28.0918 36.1414 27.1547 37.4545 25.9106C38.7677 24.6666 39.7936 23.1852 40.5322 21.4664C40.5486 21.4664 40.5568 21.4583 40.5568 21.4419V21.4051L40.5691 21.3805L40.5814 21.3682V21.2946L40.6061 21.2455C40.6225 21.1473 40.6307 21.0736 40.6307 21.0245C40.6307 20.9917 40.6266 20.959 40.6184 20.9263C40.6102 20.8935 40.6061 20.8608 40.6061 20.8281ZM28 28.0959C25.6692 28.0959 23.5107 27.4862 21.5246 26.2667C19.5385 25.0472 18.0284 23.2998 16.9943 21.0245C18.0284 18.7492 19.5467 16.9936 21.5492 15.7577C23.5518 14.5219 25.7184 13.9039 28.0492 13.9039C29.5593 13.9039 31.0079 14.1659 32.3949 14.6897C33.7819 15.2135 35.0581 16.0196 36.2235 17.1082C37.3889 18.1967 38.3163 19.5022 39.0057 21.0245C37.9716 23.2998 36.4615 25.0472 34.4754 26.2667C32.4893 27.4862 30.3308 28.0959 28 28.0959Z" fill="white"/>
<path d="M57.65 20.918C58.098 21.1327 58.4527 21.4407 58.714 21.842C58.9847 22.2433 59.12 22.7053 59.12 23.228C59.12 24.012 58.8447 24.67 58.294 25.202C57.7433 25.734 57.0713 26 56.278 26H52.05V16.2H55.97C56.7353 16.2 57.384 16.4567 57.916 16.97C58.448 17.4833 58.714 18.118 58.714 18.874C58.714 19.742 58.3593 20.4233 57.65 20.918ZM55.97 17.418H53.352V20.414H55.97C56.3807 20.414 56.726 20.2693 57.006 19.98C57.286 19.6907 57.426 19.336 57.426 18.916C57.426 18.5053 57.2813 18.1553 56.992 17.866C56.712 17.5673 56.3713 17.418 55.97 17.418ZM56.278 24.782C56.7167 24.782 57.0853 24.628 57.384 24.32C57.6827 24.012 57.832 23.634 57.832 23.186C57.832 22.7473 57.678 22.374 57.37 22.066C57.0713 21.758 56.7073 21.604 56.278 21.604H53.352V24.782H56.278ZM61.9653 24.768H66.5153V26H60.6633V16.2H66.4453V17.432H61.9653V20.442H66.0953V21.66H61.9653V24.768ZM71.6431 16.2C72.5484 16.2 73.2998 16.5033 73.8971 17.11C74.5038 17.7073 74.8071 18.454 74.8071 19.35C74.8071 20.2367 74.5038 20.9833 73.8971 21.59C73.2998 22.1967 72.5484 22.5 71.6431 22.5H69.3891V26H68.0871V16.2H71.6431ZM71.6431 21.282C72.1844 21.282 72.6324 21.1 72.9871 20.736C73.3418 20.3627 73.5191 19.9007 73.5191 19.35C73.5191 18.79 73.3418 18.328 72.9871 17.964C72.6324 17.6 72.1844 17.418 71.6431 17.418H69.3891V21.282H71.6431ZM80.8826 26.182C79.3986 26.182 78.1712 25.692 77.2006 24.712C76.2392 23.732 75.7586 22.528 75.7586 21.1C75.7586 19.672 76.2392 18.468 77.2006 17.488C78.1712 16.508 79.3986 16.018 80.8826 16.018C81.7786 16.018 82.5999 16.2327 83.3466 16.662C84.1026 17.0913 84.6906 17.67 85.1106 18.398L83.9766 19.056C83.6966 18.5147 83.2766 18.0853 82.7166 17.768C82.1659 17.4413 81.5546 17.278 80.8826 17.278C79.7532 17.278 78.8292 17.642 78.1106 18.37C77.4012 19.098 77.0466 20.008 77.0466 21.1C77.0466 22.1827 77.4012 23.088 78.1106 23.816C78.8292 24.544 79.7532 24.908 80.8826 24.908C81.5546 24.908 82.1659 24.7493 82.7166 24.432C83.2766 24.1053 83.6966 23.676 83.9766 23.144L85.1106 23.788C84.6999 24.516 84.1166 25.0993 83.3606 25.538C82.6046 25.9673 81.7786 26.182 80.8826 26.182ZM92.6752 26V18.692L87.6352 26H86.5852V16.2H87.8872V23.522L92.9272 16.2H93.9772V26H92.6752ZM102.667 16.2V26H101.379V22.248H99.4334L96.8994 26H95.4294L98.0334 22.164C97.3614 22.0053 96.8061 21.6507 96.3674 21.1C95.9288 20.5493 95.7094 19.9287 95.7094 19.238C95.7094 18.398 96.0034 17.684 96.5914 17.096C97.1888 16.4987 97.9074 16.2 98.7474 16.2H102.667ZM98.7474 21.072H101.379V17.418H98.7474C98.2714 17.418 97.8608 17.5953 97.5154 17.95C97.1701 18.3047 96.9974 18.734 96.9974 19.238C96.9974 19.742 97.1701 20.176 97.5154 20.54C97.8608 20.8947 98.2714 21.072 98.7474 21.072ZM115.451 24.768H116.501V27.876H115.199V26H108.731V27.876H107.429V24.768H108.283C108.889 24.012 109.193 22.864 109.193 21.324V16.2H115.451V24.768ZM109.753 24.768H114.149V17.418H110.495V21.352C110.495 22.836 110.247 23.9747 109.753 24.768ZM117.19 26V24.824C117.834 24.9173 118.315 24.74 118.632 24.292C118.959 23.8347 119.122 22.99 119.122 21.758V16.2H125.59V26H124.288V17.432H120.424V21.758C120.424 22.6353 120.34 23.3727 120.172 23.97C120.013 24.558 119.78 25.0013 119.472 25.3C119.173 25.5987 118.837 25.804 118.464 25.916C118.1 26.0187 117.675 26.0467 117.19 26ZM134.29 16.2V26H133.002V22.248H131.056L128.522 26H127.052L129.656 22.164C128.984 22.0053 128.429 21.6507 127.99 21.1C127.552 20.5493 127.332 19.9287 127.332 19.238C127.332 18.398 127.626 17.684 128.214 17.096C128.812 16.4987 129.53 16.2 130.37 16.2H134.29ZM130.37 21.072H133.002V17.418H130.37C129.894 17.418 129.484 17.5953 129.138 17.95C128.793 18.3047 128.62 18.734 128.62 19.238C128.62 19.742 128.793 20.176 129.138 20.54C129.484 20.8947 129.894 21.072 130.37 21.072ZM144.498 26.182C143.014 26.182 141.786 25.692 140.816 24.712C139.854 23.732 139.374 22.528 139.374 21.1C139.374 19.672 139.854 18.468 140.816 17.488C141.786 16.508 143.014 16.018 144.498 16.018C145.394 16.018 146.215 16.2327 146.962 16.662C147.718 17.0913 148.306 17.67 148.726 18.398L147.592 19.056C147.312 18.5147 146.892 18.0853 146.332 17.768C145.781 17.4413 145.17 17.278 144.498 17.278C143.368 17.278 142.444 17.642 141.726 18.37C141.016 19.098 140.662 20.008 140.662 21.1C140.662 22.1827 141.016 23.088 141.726 23.816C142.444 24.544 143.368 24.908 144.498 24.908C145.17 24.908 145.781 24.7493 146.332 24.432C146.892 24.1053 147.312 23.676 147.592 23.144L148.726 23.788C148.315 24.516 147.732 25.0993 146.976 25.538C146.22 25.9673 145.394 26.182 144.498 26.182ZM149.141 26V24.824C149.785 24.9173 150.266 24.74 150.583 24.292C150.91 23.8347 151.073 22.99 151.073 21.758V16.2H157.541V26H156.239V17.432H152.375V21.758C152.375 22.6353 152.291 23.3727 152.123 23.97C151.965 24.558 151.731 25.0013 151.423 25.3C151.125 25.5987 150.789 25.804 150.415 25.916C150.051 26.0187 149.627 26.0467 149.141 26ZM166.102 26L165.304 23.802H160.894L160.096 26H158.71L162.364 16.2H163.834L167.488 26H166.102ZM161.342 22.584H164.856L163.092 17.754L161.342 22.584ZM172.326 20.05C173.175 20.05 173.894 20.3393 174.482 20.918C175.07 21.4873 175.364 22.1873 175.364 23.018C175.364 23.8673 175.07 24.5767 174.482 25.146C173.903 25.7153 173.184 26 172.326 26H168.644V16.2H174.524V17.432H169.946V20.05H172.326ZM172.326 24.782C172.811 24.782 173.222 24.614 173.558 24.278C173.903 23.942 174.076 23.522 174.076 23.018C174.076 22.5233 173.903 22.108 173.558 21.772C173.222 21.436 172.811 21.268 172.326 21.268H169.946V24.782H172.326ZM184.913 24.698C183.933 25.6873 182.734 26.182 181.315 26.182C179.896 26.182 178.697 25.6873 177.717 24.698C176.737 23.7087 176.247 22.5093 176.247 21.1C176.247 19.6813 176.737 18.482 177.717 17.502C178.697 16.5127 179.896 16.018 181.315 16.018C182.734 16.018 183.933 16.5127 184.913 17.502C185.902 18.482 186.397 19.6813 186.397 21.1C186.397 22.5093 185.902 23.7087 184.913 24.698ZM178.613 23.816C179.341 24.544 180.242 24.908 181.315 24.908C182.388 24.908 183.284 24.544 184.003 23.816C184.731 23.0787 185.095 22.1733 185.095 21.1C185.095 20.0173 184.731 19.112 184.003 18.384C183.284 17.6467 182.388 17.278 181.315 17.278C180.242 17.278 179.341 17.6467 178.613 18.384C177.894 19.112 177.535 20.0173 177.535 21.1C177.535 22.1733 177.894 23.0787 178.613 23.816ZM193.562 20.918C194.01 21.1327 194.365 21.4407 194.626 21.842C194.897 22.2433 195.032 22.7053 195.032 23.228C195.032 24.012 194.757 24.67 194.206 25.202C193.655 25.734 192.983 26 192.19 26H187.962V16.2H191.882C192.647 16.2 193.296 16.4567 193.828 16.97C194.36 17.4833 194.626 18.118 194.626 18.874C194.626 19.742 194.271 20.4233 193.562 20.918ZM191.882 17.418H189.264V20.414H191.882C192.293 20.414 192.638 20.2693 192.918 19.98C193.198 19.6907 193.338 19.336 193.338 18.916C193.338 18.5053 193.193 18.1553 192.904 17.866C192.624 17.5673 192.283 17.418 191.882 17.418ZM192.19 24.782C192.629 24.782 192.997 24.628 193.296 24.32C193.595 24.012 193.744 23.634 193.744 23.186C193.744 22.7473 193.59 22.374 193.282 22.066C192.983 21.758 192.619 21.604 192.19 21.604H189.264V24.782H192.19ZM202.665 26V18.692L197.625 26H196.575V16.2H197.877V23.522L202.917 16.2H203.967V26H202.665ZM213.246 24.768H214.296V27.876H212.994V26H206.526V27.876H205.224V24.768H206.078C206.684 24.012 206.988 22.864 206.988 21.324V16.2H213.246V24.768ZM207.548 24.768H211.944V17.418H208.29V21.352C208.29 22.836 208.042 23.9747 207.548 24.768ZM222.392 16.2V26H221.104V22.248H219.158L216.624 26H215.154L217.758 22.164C217.086 22.0053 216.531 21.6507 216.092 21.1C215.653 20.5493 215.434 19.9287 215.434 19.238C215.434 18.398 215.728 17.684 216.316 17.096C216.913 16.4987 217.632 16.2 218.472 16.2H222.392ZM218.472 21.072H221.104V17.418H218.472C217.996 17.418 217.585 17.5953 217.24 17.95C216.895 18.3047 216.722 18.734 216.722 19.238C216.722 19.742 216.895 20.176 217.24 20.54C217.585 20.8947 217.996 21.072 218.472 21.072ZM235.665 24.768H236.715V27.876H235.413V26H224.493V16.2H225.795V24.768H229.435V16.2H230.723V24.768H234.363V16.2H235.665V24.768ZM244.31 26V18.692L239.27 26H238.22V16.2H239.522V23.522L244.562 16.2H245.612V26H244.31ZM254.68 26H253.196L250.788 22.136L248.38 26H246.91L250.06 20.96L247.092 16.2H248.562L250.788 19.77L253.014 16.2H254.484L251.53 20.946L254.68 26Z" fill="white"/>
</svg>
