<svg width="24" height="24" viewBox="0 0 24 24" fill="none" xmlns="http://www.w3.org/2000/svg">
<g clip-path="url(#clip0_21_14)">
<path fill-rule="evenodd" clip-rule="evenodd" d="M21.3624 14.7576C21.3624 14.7576 23.3028 16.674 23.7828 17.5608C23.7922 17.5736 23.7994 17.5877 23.8044 17.6028C24 17.9304 24.048 18.1872 23.952 18.3768C23.79 18.69 23.2416 18.8472 23.0556 18.8604H19.626C19.3872 18.8604 18.8904 18.798 18.2856 18.3804C17.8236 18.0576 17.364 17.526 16.9188 17.0064C16.254 16.2348 15.6792 15.5652 15.0972 15.5652C15.0237 15.565 14.9507 15.5772 14.8812 15.6012C14.4408 15.7404 13.8816 16.368 13.8816 18.0396C13.8816 18.5628 13.4688 18.8604 13.1796 18.8604H11.6088C11.0736 18.8604 8.28722 18.6732 5.81642 16.068C2.78882 12.8784 0.0696165 6.47997 0.0432165 6.42357C-0.125984 6.00957 0.229217 5.78397 0.613217 5.78397H4.07642C4.54082 5.78397 4.69202 6.06477 4.79762 6.31677C4.92002 6.60597 5.37362 7.76277 6.11762 9.06237C7.32242 11.1768 8.06282 12.0372 8.65442 12.0372C8.76556 12.0375 8.87483 12.0085 8.97122 11.9532C9.74402 11.5284 9.60002 8.76837 9.56402 8.19957C9.56402 8.08917 9.56282 6.96717 9.16682 6.42477C8.88362 6.03597 8.40122 5.88477 8.10962 5.82957C8.18762 5.71677 8.35322 5.54397 8.56562 5.44197C9.09482 5.17797 10.0512 5.13957 11.0004 5.13957H11.5272C12.5568 5.15397 12.8232 5.21997 13.1976 5.31477C13.9512 5.49477 13.9656 5.98317 13.8996 7.64637C13.8804 8.12157 13.86 8.65677 13.86 9.28677C13.86 9.42117 13.854 9.57117 13.854 9.72357C13.8312 10.5768 13.8012 11.538 14.4036 11.9328C14.4817 11.9814 14.572 12.0072 14.664 12.0072C14.8728 12.0072 15.498 12.0072 17.1936 9.09717C17.9376 7.81197 18.5136 6.29637 18.5532 6.18237C18.5868 6.11877 18.6876 5.93997 18.81 5.86797C18.8971 5.82164 18.9946 5.7985 19.0932 5.80077H23.1672C23.6112 5.80077 23.9124 5.86797 23.9712 6.03597C24.0696 6.30837 23.952 7.13997 22.092 9.65517C21.7788 10.074 21.504 10.4364 21.2628 10.7532C19.5768 12.966 19.5768 13.0776 21.3624 14.7576Z" fill="#4FBFA5"/>
</g>
<defs>
<clipPath id="clip0_21_14">
<rect width="24" height="24" fill="white"/>
</clipPath>
</defs>
</svg>
