<svg width="24" height="24" viewBox="0 0 24 24" fill="none" xmlns="http://www.w3.org/2000/svg">
<path d="M22.0575 6.94503C21.938 6.50106 21.704 6.09627 21.3789 5.77116C21.0537 5.44605 20.649 5.21203 20.205 5.09253C18.57 4.65003 12 4.65003 12 4.65003C12 4.65003 5.42998 4.65003 3.79498 5.09253C3.35101 5.21203 2.94622 5.44605 2.62111 5.77116C2.296 6.09627 2.06199 6.50106 1.94248 6.94503C1.63719 8.61248 1.48904 10.3049 1.49998 12C1.48904 13.6952 1.63719 15.3876 1.94248 17.055C2.06199 17.499 2.296 17.9038 2.62111 18.2289C2.94622 18.554 3.35101 18.788 3.79498 18.9075C5.42998 19.35 12 19.35 12 19.35C12 19.35 18.57 19.35 20.205 18.9075C20.649 18.788 21.0537 18.554 21.3789 18.2289C21.704 17.9038 21.938 17.499 22.0575 17.055C22.3628 15.3876 22.5109 13.6952 22.5 12C22.5109 10.3049 22.3628 8.61248 22.0575 6.94503ZM9.89998 15.15V8.85003L15.3525 12L9.89998 15.15Z" fill="#4FBFA5"/>
</svg>
